<svg width="120" height="171" viewBox="0 0 120 171" fill="none" xmlns="http://www.w3.org/2000/svg">
<g clip-path="url(#clip0_6_2803)">
<path d="M0 24.7148C0 13.4011 0 7.74428 3.51472 4.22956C7.02944 0.714844 12.6863 0.714844 24 0.714844H96C107.314 0.714844 112.971 0.714844 116.485 4.22956C120 7.74428 120 13.4011 120 24.7148V146.715C120 158.029 120 163.685 116.485 167.2C112.971 170.715 107.314 170.715 96 170.715H24C12.6863 170.715 7.02944 170.715 3.51472 167.2C0 163.685 0 158.029 0 146.715V24.7148Z" fill="#EBF6FF"/>
<g clip-path="url(#clip1_6_2803)">
<path d="M39.25 80.6523C42.8398 80.6523 45.75 77.7422 45.75 74.1523C45.75 70.5625 42.8398 67.6523 39.25 67.6523C35.6601 67.6523 32.75 70.5625 32.75 74.1523C32.75 77.7422 35.6601 80.6523 39.25 80.6523Z" stroke="#3AA6FF" stroke-width="3" stroke-miterlimit="10" stroke-linecap="round" stroke-linejoin="round"/>
<path d="M85.25 80.6523C88.8399 80.6523 91.75 77.7422 91.75 74.1523C91.75 70.5625 88.8399 67.6523 85.25 67.6523C81.6601 67.6523 78.75 70.5625 78.75 74.1523C78.75 77.7422 81.6601 80.6523 85.25 80.6523Z" stroke="#3AA6FF" stroke-width="3" stroke-miterlimit="10" stroke-linecap="round" stroke-linejoin="round"/>
<path d="M92.0625 73.6523H96.25C97.5 73.6523 98.5625 72.6523 98.5625 71.3398V54.8398" stroke="#3AA6FF" stroke-width="3" stroke-miterlimit="10" stroke-linecap="round" stroke-linejoin="round"/>
<path d="M45.75 73.6523H55.625H60.9375H78.625" stroke="#3AA6FF" stroke-width="3" stroke-miterlimit="10" stroke-linecap="round" stroke-linejoin="round"/>
<path d="M21.8125 54.8398H98.5625L90.375 32.7773H23.75C22.5 32.7773 21.4375 33.7773 21.4375 35.0898V65.4023C21.4375 67.5273 22.6875 69.3398 24.6875 70.0273L33.1875 71.8398" stroke="#3AA6FF" stroke-width="3" stroke-miterlimit="10" stroke-linecap="round" stroke-linejoin="round"/>
<path d="M37.4375 54.2148V41.2148" stroke="#3AA6FF" stroke-width="3" stroke-miterlimit="10" stroke-linecap="round" stroke-linejoin="round"/>
<path d="M51.875 54.2148V41.2148" stroke="#3AA6FF" stroke-width="3" stroke-miterlimit="10" stroke-linecap="round" stroke-linejoin="round"/>
<path d="M66.3125 54.2148V41.2148" stroke="#3AA6FF" stroke-width="3" stroke-miterlimit="10" stroke-linecap="round" stroke-linejoin="round"/>
<path d="M81.25 54.2148V41.2148" stroke="#3AA6FF" stroke-width="3" stroke-miterlimit="10" stroke-linecap="round" stroke-linejoin="round"/>
<path d="M22.4375 60.2773H26.25V65.0273H22.4375" stroke="#3AA6FF" stroke-width="3" stroke-miterlimit="10" stroke-linecap="round" stroke-linejoin="round"/>
<path d="M98.0625 65.0273H94.25V60.2773H98.0625" stroke="#3AA6FF" stroke-width="3" stroke-miterlimit="10" stroke-linecap="round" stroke-linejoin="round"/>
<path d="M93.25 40.5273H63.1875H53.6875H22.4375" stroke="#3AA6FF" stroke-width="3" stroke-miterlimit="10" stroke-linecap="round" stroke-linejoin="round"/>
<path d="M71.4375 68.6523V59.8398C71.4375 57.1523 69.25 54.9648 66.5625 54.9648H57.75C55.0625 54.9648 52.875 57.1523 52.875 59.8398V68.6523C52.875 71.3398 55.0625 73.5273 57.75 73.5273H66.5625C69.25 73.5273 71.4375 71.3398 71.4375 68.6523Z" stroke="#3AA6FF" stroke-width="3" stroke-miterlimit="10" stroke-linecap="round" stroke-linejoin="round"/>
<path d="M60.125 65.4023H62.6875C64.0625 65.4023 65.1875 64.2773 65.1875 62.9023C65.1875 61.5273 64.0625 60.4023 62.6875 60.4023H60.125V68.3398" stroke="#3AA6FF" stroke-width="3" stroke-miterlimit="10" stroke-linecap="round" stroke-linejoin="round"/>
</g>
<rect width="120" height="62" transform="translate(0 108.715)" fill="#3AA6FF"/>
<path d="M16.496 142.859C16.0267 142.859 15.664 142.731 15.408 142.475C15.152 142.219 15.024 141.851 15.024 141.371V132.923C15.024 132.443 15.152 132.075 15.408 131.819C15.664 131.563 16.032 131.435 16.512 131.435H20.448C21.728 131.435 22.7147 131.766 23.408 132.427C24.112 133.078 24.464 133.979 24.464 135.131C24.464 136.283 24.112 137.19 23.408 137.851C22.7147 138.502 21.728 138.827 20.448 138.827H17.968V141.371C17.968 141.851 17.84 142.219 17.584 142.475C17.3387 142.731 16.976 142.859 16.496 142.859ZM17.968 136.571H19.936C21.088 136.571 21.664 136.091 21.664 135.131C21.664 134.171 21.088 133.691 19.936 133.691H17.968V136.571ZM28.0368 142.891C27.4288 142.891 26.8901 142.779 26.4208 142.555C25.9621 142.331 25.5994 142.027 25.3328 141.643C25.0768 141.248 24.9488 140.8 24.9488 140.299C24.9488 139.734 25.0981 139.286 25.3968 138.955C25.6954 138.614 26.1754 138.374 26.8368 138.235C27.4981 138.086 28.3781 138.011 29.4768 138.011H30.0848V137.787C30.0848 137.403 29.9834 137.131 29.7808 136.971C29.5888 136.811 29.2528 136.731 28.7728 136.731C28.5061 136.731 28.2128 136.763 27.8928 136.827C27.5834 136.88 27.2314 136.982 26.8368 137.131C26.4848 137.259 26.1914 137.254 25.9568 137.115C25.7221 136.976 25.5674 136.779 25.4928 136.523C25.4288 136.256 25.4554 135.995 25.5728 135.739C25.7008 135.472 25.9408 135.275 26.2928 135.147C26.8048 134.966 27.2741 134.843 27.7008 134.779C28.1381 134.704 28.5381 134.667 28.9008 134.667C30.2128 134.667 31.1834 134.95 31.8128 135.515C32.4528 136.08 32.7728 136.971 32.7728 138.187V141.419C32.7728 142.379 32.3354 142.859 31.4608 142.859C30.6288 142.859 30.1861 142.432 30.1328 141.579C29.9834 141.984 29.7274 142.304 29.3648 142.539C29.0021 142.774 28.5594 142.891 28.0368 142.891ZM28.6768 141.035C29.0714 141.035 29.4021 140.907 29.6688 140.651C29.9461 140.395 30.0848 140.059 30.0848 139.643V139.355H29.4768C28.8474 139.355 28.3834 139.424 28.0848 139.563C27.7968 139.691 27.6528 139.899 27.6528 140.187C27.6528 140.432 27.7381 140.635 27.9088 140.795C28.0901 140.955 28.3461 141.035 28.6768 141.035ZM35.8505 142.859C34.8798 142.859 34.3945 142.379 34.3945 141.419V136.123C34.3945 135.174 34.8585 134.699 35.7865 134.699C36.2238 134.699 36.5598 134.822 36.7945 135.067C37.0398 135.312 37.1625 135.664 37.1625 136.123V136.171C37.3438 135.712 37.6372 135.35 38.0425 135.083C38.4478 134.816 38.9278 134.678 39.4825 134.667C39.7918 134.656 40.0212 134.736 40.1705 134.907C40.3305 135.067 40.4158 135.371 40.4265 135.819C40.4265 136.203 40.3465 136.507 40.1865 136.731C40.0265 136.955 39.7225 137.088 39.2745 137.131L38.9065 137.163C38.3412 137.216 37.9305 137.376 37.6745 137.643C37.4185 137.899 37.2905 138.283 37.2905 138.795V141.419C37.2905 142.379 36.8105 142.859 35.8505 142.859ZM42.74 142.859C42.2813 142.859 41.9293 142.736 41.684 142.491C41.4493 142.246 41.332 141.888 41.332 141.419V132.731C41.332 131.771 41.8013 131.291 42.74 131.291C43.1987 131.291 43.5507 131.414 43.796 131.659C44.052 131.904 44.18 132.262 44.18 132.731V138.011H44.212L46.164 135.643C46.4307 135.312 46.676 135.072 46.9 134.923C47.1347 134.774 47.4493 134.699 47.844 134.699C48.2387 134.699 48.5427 134.795 48.756 134.987C48.9693 135.179 49.076 135.419 49.076 135.707C49.0867 135.995 48.9747 136.283 48.74 136.571L47.044 138.587L48.996 141.051C49.22 141.36 49.3107 141.654 49.268 141.931C49.236 142.198 49.1027 142.422 48.868 142.603C48.644 142.774 48.356 142.859 48.004 142.859C47.5667 142.859 47.22 142.784 46.964 142.635C46.7187 142.475 46.468 142.23 46.212 141.899L44.212 139.435H44.18V141.419C44.18 142.379 43.7 142.859 42.74 142.859ZM59.4314 142.891C58.5674 142.891 57.8154 142.758 57.1754 142.491C56.5354 142.214 56.0394 141.835 55.6874 141.355C55.346 140.864 55.1754 140.294 55.1754 139.643C55.1754 138.918 55.3727 138.299 55.7674 137.787C56.1727 137.275 56.6847 136.854 57.3034 136.523C56.962 136.182 56.706 135.814 56.5354 135.419C56.3647 135.014 56.2794 134.603 56.2794 134.187C56.2794 133.611 56.4234 133.104 56.7114 132.667C57.01 132.219 57.4207 131.872 57.9434 131.627C58.4767 131.382 59.1007 131.259 59.8154 131.259C60.7647 131.259 61.5167 131.504 62.0714 131.995C62.6367 132.475 62.9194 133.126 62.9194 133.947C62.9194 135.152 62.29 136.112 61.0314 136.827L62.6634 138.411C62.7914 138.155 62.898 137.883 62.9834 137.595C63.0687 137.307 63.1434 137.008 63.2074 136.699C63.282 136.336 63.4154 136.064 63.6074 135.883C63.81 135.702 64.0927 135.611 64.4554 135.611C64.8394 135.611 65.1274 135.718 65.3194 135.931C65.522 136.144 65.5914 136.448 65.5274 136.843C65.4314 137.451 65.282 138.022 65.0794 138.555C64.8874 139.078 64.642 139.558 64.3434 139.995L65.4314 141.019C65.73 141.296 65.8794 141.579 65.8794 141.867C65.89 142.144 65.7834 142.379 65.5594 142.571C65.3354 142.763 65.0367 142.859 64.6634 142.859C64.322 142.859 64.0447 142.795 63.8314 142.667C63.6287 142.528 63.3994 142.342 63.1434 142.107L62.7754 141.739C62.2954 142.102 61.7674 142.384 61.1914 142.587C60.626 142.79 60.0394 142.891 59.4314 142.891ZM59.8154 133.115C59.5167 133.115 59.282 133.206 59.1114 133.387C58.9407 133.568 58.8554 133.808 58.8554 134.107C58.8554 134.331 58.9087 134.544 59.0154 134.747C59.1327 134.95 59.3194 135.184 59.5754 135.451C59.9914 135.238 60.2847 135.024 60.4554 134.811C60.6367 134.587 60.7274 134.326 60.7274 134.027C60.7274 133.718 60.642 133.488 60.4714 133.339C60.3114 133.19 60.0927 133.115 59.8154 133.115ZM59.6234 140.747C59.922 140.747 60.194 140.704 60.4394 140.619C60.6954 140.534 60.9407 140.406 61.1754 140.235L58.7914 137.947C58.258 138.32 57.9914 138.816 57.9914 139.435C57.9914 139.84 58.1354 140.16 58.4234 140.395C58.7114 140.63 59.1114 140.747 59.6234 140.747ZM73.6835 142.859C73.2142 142.859 72.8515 142.731 72.5955 142.475C72.3395 142.219 72.2115 141.851 72.2115 141.371V132.923C72.2115 132.443 72.3395 132.075 72.5955 131.819C72.8515 131.563 73.2195 131.435 73.6995 131.435H77.6355C78.9155 131.435 79.9022 131.75 80.5955 132.379C81.2995 132.998 81.6515 133.862 81.6515 134.971C81.6515 135.814 81.4382 136.523 81.0115 137.099C80.5955 137.664 79.9875 138.059 79.1875 138.283C79.7848 138.443 80.2648 138.854 80.6275 139.515L81.4275 140.955C81.5982 141.275 81.6728 141.579 81.6515 141.867C81.6408 142.155 81.5288 142.395 81.3155 142.587C81.1022 142.768 80.7875 142.859 80.3715 142.859C79.9555 142.859 79.6142 142.779 79.3475 142.619C79.0915 142.448 78.8622 142.176 78.6595 141.803L77.2035 139.131C77.0755 138.896 76.9102 138.736 76.7075 138.651C76.5155 138.555 76.2915 138.507 76.0355 138.507H75.1555V141.371C75.1555 141.851 75.0275 142.219 74.7715 142.475C74.5262 142.731 74.1635 142.859 73.6835 142.859ZM75.1555 136.427H77.1075C78.2702 136.427 78.8515 135.968 78.8515 135.051C78.8515 134.144 78.2702 133.691 77.1075 133.691H75.1555V136.427ZM84.7244 133.563C84.223 133.563 83.8337 133.446 83.5564 133.211C83.2897 132.976 83.1564 132.635 83.1564 132.187C83.1564 131.75 83.2897 131.414 83.5564 131.179C83.8337 130.944 84.223 130.827 84.7244 130.827C85.7804 130.827 86.3084 131.28 86.3084 132.187C86.3084 132.635 86.1697 132.976 85.8924 133.211C85.6257 133.446 85.2364 133.563 84.7244 133.563ZM84.7244 142.859C84.2657 142.859 83.9137 142.726 83.6684 142.459C83.4337 142.192 83.3164 141.808 83.3164 141.307V136.251C83.3164 135.75 83.4337 135.366 83.6684 135.099C83.9137 134.832 84.2657 134.699 84.7244 134.699C85.183 134.699 85.535 134.832 85.7804 135.099C86.0364 135.366 86.1644 135.75 86.1644 136.251V141.307C86.1644 141.808 86.0417 142.192 85.7964 142.459C85.551 142.726 85.1937 142.859 84.7244 142.859ZM90.8884 142.891C90.2164 142.891 89.619 142.726 89.0964 142.395C88.5844 142.064 88.179 141.59 87.8804 140.971C87.5924 140.352 87.4484 139.622 87.4484 138.779C87.4484 137.926 87.5924 137.195 87.8804 136.587C88.179 135.968 88.5844 135.494 89.0964 135.163C89.619 134.832 90.2164 134.667 90.8884 134.667C91.3897 134.667 91.8484 134.774 92.2644 134.987C92.691 135.19 93.0164 135.456 93.2404 135.787V132.731C93.2404 131.771 93.715 131.291 94.6644 131.291C95.123 131.291 95.475 131.414 95.7204 131.659C95.9657 131.904 96.0884 132.262 96.0884 132.731V141.419C96.0884 142.379 95.619 142.859 94.6804 142.859C93.8377 142.859 93.3737 142.459 93.2884 141.659C93.075 142.032 92.7497 142.331 92.3124 142.555C91.8857 142.779 91.411 142.891 90.8884 142.891ZM91.8004 140.795C92.227 140.795 92.579 140.635 92.8564 140.315C93.1337 139.995 93.2724 139.483 93.2724 138.779C93.2724 138.064 93.1337 137.552 92.8564 137.243C92.579 136.923 92.227 136.763 91.8004 136.763C91.363 136.763 91.0057 136.923 90.7284 137.243C90.451 137.552 90.3124 138.064 90.3124 138.779C90.3124 139.483 90.451 139.995 90.7284 140.315C91.0057 140.635 91.363 140.795 91.8004 140.795ZM102.026 142.891C101.066 142.891 100.234 142.726 99.5303 142.395C98.8369 142.054 98.3036 141.574 97.9303 140.955C97.5569 140.336 97.3703 139.606 97.3703 138.763C97.3703 137.963 97.5463 137.254 97.8983 136.635C98.2609 136.016 98.7516 135.536 99.3703 135.195C99.9996 134.843 100.714 134.667 101.514 134.667C102.304 134.667 102.986 134.832 103.562 135.163C104.149 135.494 104.597 135.968 104.906 136.587C105.226 137.195 105.386 137.91 105.386 138.731C105.386 139.147 105.141 139.355 104.65 139.355H100.09C100.186 139.867 100.4 140.235 100.73 140.459C101.061 140.683 101.52 140.795 102.106 140.795C102.33 140.795 102.597 140.768 102.906 140.715C103.216 140.662 103.509 140.576 103.786 140.459C104.128 140.331 104.416 140.331 104.65 140.459C104.885 140.576 105.04 140.763 105.114 141.019C105.2 141.264 105.189 141.52 105.082 141.787C104.986 142.043 104.789 142.24 104.49 142.379C104.117 142.56 103.717 142.688 103.29 142.763C102.874 142.848 102.453 142.891 102.026 142.891ZM101.642 136.507C101.216 136.507 100.864 136.635 100.586 136.891C100.32 137.147 100.149 137.52 100.074 138.011H103.05C103.018 137.51 102.88 137.136 102.634 136.891C102.4 136.635 102.069 136.507 101.642 136.507Z" fill="white"/>
</g>
<defs>
<clipPath id="clip0_6_2803">
<path d="M0 24.7148C0 13.4011 0 7.74428 3.51472 4.22956C7.02944 0.714844 12.6863 0.714844 24 0.714844H96C107.314 0.714844 112.971 0.714844 116.485 4.22956C120 7.74428 120 13.4011 120 24.7148V146.715C120 158.029 120 163.685 116.485 167.2C112.971 170.715 107.314 170.715 96 170.715H24C12.6863 170.715 7.02944 170.715 3.51472 167.2C0 163.685 0 158.029 0 146.715V24.7148Z" fill="white"/>
</clipPath>
<clipPath id="clip1_6_2803">
<rect width="80" height="80" fill="white" transform="translate(20 16.7148)"/>
</clipPath>
</defs>
</svg>
