<svg width="120" height="171" viewBox="0 0 120 171" fill="none" xmlns="http://www.w3.org/2000/svg">
<g clip-path="url(#clip0_6_2813)">
<path d="M0 24.7148C0 13.4011 0 7.74428 3.51472 4.22956C7.02944 0.714844 12.6863 0.714844 24 0.714844H96C107.314 0.714844 112.971 0.714844 116.485 4.22956C120 7.74428 120 13.4011 120 24.7148V146.715C120 158.029 120 163.685 116.485 167.2C112.971 170.715 107.314 170.715 96 170.715H24C12.6863 170.715 7.02944 170.715 3.51472 167.2C0 163.685 0 158.029 0 146.715V24.7148Z" fill="#FFF8EF"/>
<path d="M68.1874 36.7148H89.9999C91.3749 36.7148 92.5624 37.8398 92.5624 39.2773V42.7148C92.5624 44.0898 91.4374 45.2773 89.9999 45.2773H68.1874C66.8124 45.2773 65.6249 44.1523 65.6249 42.7148V39.2773C65.6249 37.8398 66.8124 36.7148 68.1874 36.7148Z" stroke="#FFB55F" stroke-width="2.6129" stroke-miterlimit="10" stroke-linecap="round" stroke-linejoin="round"/>
<path d="M68.8123 35.7146L70.6873 31.3396C70.8748 30.7771 71.3748 30.3396 71.9998 30.3396H86.1249C86.7499 30.3396 87.2499 30.7771 87.4374 31.3396L89.3124 35.7146" stroke="#FFB55F" stroke-width="2.6129" stroke-miterlimit="10" stroke-linecap="round" stroke-linejoin="round"/>
<path d="M70.3125 41.7151C70.7612 41.7151 71.125 41.3513 71.125 40.9026C71.125 40.4539 70.7612 40.0901 70.3125 40.0901C69.8637 40.0901 69.5 40.4539 69.5 40.9026C69.5 41.3513 69.8637 41.7151 70.3125 41.7151Z" stroke="#FFB55F" stroke-width="3.48387" stroke-miterlimit="10" stroke-linecap="round" stroke-linejoin="round"/>
<path d="M87.8749 41.7151C88.3236 41.7151 88.6874 41.3513 88.6874 40.9026C88.6874 40.4539 88.3236 40.0901 87.8749 40.0901C87.4261 40.0901 87.0624 40.4539 87.0624 40.9026C87.0624 41.3513 87.4261 41.7151 87.8749 41.7151Z" stroke="#FFB55F" stroke-width="3.48387" stroke-miterlimit="10" stroke-linecap="round" stroke-linejoin="round"/>
<path d="M90.3124 34.5273H90.9374" stroke="#FFB55F" stroke-width="2.6129" stroke-miterlimit="10" stroke-linecap="round" stroke-linejoin="round"/>
<path d="M67.2498 34.5273H67.8748" stroke="#FFB55F" stroke-width="3.48387" stroke-miterlimit="10" stroke-linecap="round" stroke-linejoin="round"/>
<path d="M72.4373 46.1521V48.3396C72.4373 48.7146 71.4998 49.0271 70.3123 49.0271C69.1248 49.0271 68.1873 48.7146 68.1873 48.3396V46.1521" stroke="#FFB55F" stroke-width="2.6129" stroke-miterlimit="10" stroke-linecap="round" stroke-linejoin="round"/>
<path d="M90 46.1521V48.3396C90 48.7146 89.0625 49.0271 87.875 49.0271C86.6875 49.0271 85.75 48.7146 85.75 48.3396V46.1521" stroke="#FFB55F" stroke-width="2.6129" stroke-miterlimit="10" stroke-linecap="round" stroke-linejoin="round"/>
<path d="M76.3123 41.5276H81.8748" stroke="#FFB55F" stroke-width="2.6129" stroke-miterlimit="10" stroke-linecap="round" stroke-linejoin="round"/>
<path d="M64.0625 49.3401C61.625 49.8401 60.125 50.4651 60.125 51.2151C60.125 52.9026 68.625 54.2776 79.0625 54.2776C89.5 54.2776 98 52.9026 98 51.2151C98 50.5276 96.5625 49.9026 94.25 49.4026" stroke="#FFB55F" stroke-width="2.6129" stroke-linecap="round" stroke-linejoin="round"/>
<path d="M44.6876 46.6523C50.8662 46.6523 55.8751 41.6435 55.8751 35.4648C55.8751 29.2862 50.8662 24.2773 44.6876 24.2773C38.5089 24.2773 33.5001 29.2862 33.5001 35.4648C33.5001 41.6435 38.5089 46.6523 44.6876 46.6523Z" stroke="#FFB55F" stroke-width="2.6129" stroke-linecap="round" stroke-linejoin="round"/>
<path d="M57.625 89.0896V71.4021L61.5 74.7146C63.6875 76.5896 66.9375 76.3396 68.8125 74.1521L80.3125 60.6521C81.875 58.7771 82.0625 56.2771 80.9375 54.3396" stroke="#FFB55F" stroke-width="2.6129" stroke-linecap="round" stroke-linejoin="round"/>
<path d="M70.5 54.7146L65.125 61.0896C64.6875 61.6521 63.875 61.7146 63.3125 61.2146L52.5625 52.2146C50.6875 50.9646 48.5 50.2771 46.25 50.3396H43.125C39.5625 50.3396 36.25 52.0271 34.0625 54.8396L25 64.6521C20.75 69.2771 21.0625 76.4021 25.625 80.6521L31.8125 86.3396V89.0271" stroke="#FFB55F" stroke-width="2.6129" stroke-linecap="round" stroke-linejoin="round"/>
<path d="M31.8125 86.3396V71.8396" stroke="#FFB55F" stroke-width="2.6129" stroke-linecap="round" stroke-linejoin="round"/>
<path d="M44.6874 68.1526L53.8124 54.0901" stroke="#FFB55F" stroke-width="2.6129" stroke-linecap="round" stroke-linejoin="round"/>
<path d="M44.6875 68.1526L34.9375 54.7151" stroke="#FFB55F" stroke-width="2.6129" stroke-linecap="round" stroke-linejoin="round"/>
<path d="M69.4376 56.0901L78.0001 63.2151" stroke="#FFB55F" stroke-width="2.6129" stroke-linecap="round" stroke-linejoin="round"/>
<path d="M74.625 67.1521L66.0625 59.9646" stroke="#FFB55F" stroke-width="2.6129" stroke-linecap="round" stroke-linejoin="round"/>
<path d="M44.6249 55.1523L42.1874 53.6523V56.5898L44.6249 55.1523Z" stroke="#FFB55F" stroke-width="2.6129" stroke-linecap="round" stroke-linejoin="round"/>
<path d="M44.7501 55.1523L47.2501 53.6523V56.5898L44.7501 55.1523Z" stroke="#FFB55F" stroke-width="2.6129" stroke-linecap="round" stroke-linejoin="round"/>
<rect width="120" height="62" transform="translate(0 108.715)" fill="#FFB55F"/>
<path d="M10.384 142.859C9.95733 142.859 9.62667 142.742 9.392 142.507C9.168 142.272 9.056 141.942 9.056 141.515V132.635C9.056 132.198 9.17867 131.867 9.424 131.643C9.66933 131.408 10.016 131.291 10.464 131.291C10.8267 131.291 11.12 131.366 11.344 131.515C11.568 131.654 11.7707 131.888 11.952 132.219L15.104 137.899L18.256 132.219C18.448 131.888 18.6507 131.654 18.864 131.515C19.088 131.366 19.3867 131.291 19.76 131.291C20.176 131.291 20.5013 131.408 20.736 131.643C20.9707 131.867 21.088 132.198 21.088 132.635V141.515C21.088 141.942 20.976 142.272 20.752 142.507C20.528 142.742 20.1973 142.859 19.76 142.859C19.3333 142.859 19.0027 142.742 18.768 142.507C18.544 142.272 18.432 141.942 18.432 141.515V136.587L16.192 140.491C16.0427 140.726 15.8827 140.902 15.712 141.019C15.552 141.136 15.3333 141.195 15.056 141.195C14.7893 141.195 14.5707 141.136 14.4 141.019C14.2293 140.902 14.0747 140.726 13.936 140.491L11.712 136.651V141.515C11.712 141.942 11.6 142.272 11.376 142.507C11.152 142.742 10.8213 142.859 10.384 142.859ZM27.2606 142.891C26.3006 142.891 25.4686 142.726 24.7646 142.395C24.0713 142.054 23.538 141.574 23.1646 140.955C22.7913 140.336 22.6046 139.606 22.6046 138.763C22.6046 137.963 22.7806 137.254 23.1326 136.635C23.4953 136.016 23.986 135.536 24.6046 135.195C25.234 134.843 25.9486 134.667 26.7486 134.667C27.538 134.667 28.2206 134.832 28.7966 135.163C29.3833 135.494 29.8313 135.968 30.1406 136.587C30.4606 137.195 30.6206 137.91 30.6206 138.731C30.6206 139.147 30.3753 139.355 29.8846 139.355H25.3246C25.4206 139.867 25.634 140.235 25.9646 140.459C26.2953 140.683 26.754 140.795 27.3406 140.795C27.5646 140.795 27.8313 140.768 28.1406 140.715C28.45 140.662 28.7433 140.576 29.0206 140.459C29.362 140.331 29.65 140.331 29.8846 140.459C30.1193 140.576 30.274 140.763 30.3486 141.019C30.434 141.264 30.4233 141.52 30.3166 141.787C30.2206 142.043 30.0233 142.24 29.7246 142.379C29.3513 142.56 28.9513 142.688 28.5246 142.763C28.1086 142.848 27.6873 142.891 27.2606 142.891ZM26.8766 136.507C26.45 136.507 26.098 136.635 25.8206 136.891C25.554 137.147 25.3833 137.52 25.3086 138.011H28.2846C28.2526 137.51 28.114 137.136 27.8686 136.891C27.634 136.635 27.3033 136.507 26.8766 136.507ZM36.1356 142.891C35.1756 142.891 34.3436 142.726 33.6396 142.395C32.9463 142.054 32.413 141.574 32.0396 140.955C31.6663 140.336 31.4796 139.606 31.4796 138.763C31.4796 137.963 31.6556 137.254 32.0076 136.635C32.3703 136.016 32.861 135.536 33.4796 135.195C34.109 134.843 34.8236 134.667 35.6236 134.667C36.413 134.667 37.0956 134.832 37.6716 135.163C38.2583 135.494 38.7063 135.968 39.0156 136.587C39.3356 137.195 39.4956 137.91 39.4956 138.731C39.4956 139.147 39.2503 139.355 38.7596 139.355H34.1996C34.2956 139.867 34.509 140.235 34.8396 140.459C35.1703 140.683 35.629 140.795 36.2156 140.795C36.4396 140.795 36.7063 140.768 37.0156 140.715C37.325 140.662 37.6183 140.576 37.8956 140.459C38.237 140.331 38.525 140.331 38.7596 140.459C38.9943 140.576 39.149 140.763 39.2236 141.019C39.309 141.264 39.2983 141.52 39.1916 141.787C39.0956 142.043 38.8983 142.24 38.5996 142.379C38.2263 142.56 37.8263 142.688 37.3996 142.763C36.9836 142.848 36.5623 142.891 36.1356 142.891ZM35.7516 136.507C35.325 136.507 34.973 136.635 34.6956 136.891C34.429 137.147 34.2583 137.52 34.1836 138.011H37.1596C37.1276 137.51 36.989 137.136 36.7436 136.891C36.509 136.635 36.1783 136.507 35.7516 136.507ZM44.7881 142.891C43.5935 142.891 42.7081 142.614 42.1321 142.059C41.5561 141.504 41.2681 140.667 41.2681 139.547V136.939H40.7241C40.0095 136.939 39.6521 136.587 39.6521 135.883C39.6521 135.19 40.0095 134.843 40.7241 134.843H41.2681V133.851C41.2681 133.382 41.3908 133.024 41.6361 132.779C41.8815 132.534 42.2335 132.411 42.6921 132.411C43.6415 132.411 44.1161 132.891 44.1161 133.851V134.843H45.4281C46.1535 134.843 46.5161 135.19 46.5161 135.883C46.5161 136.587 46.1535 136.939 45.4281 136.939H44.1161V139.451C44.1161 140.219 44.5055 140.603 45.2841 140.603C45.4335 140.603 45.5775 140.587 45.7161 140.555C45.8548 140.523 45.9828 140.507 46.1001 140.507C46.2708 140.496 46.4095 140.55 46.5161 140.667C46.6228 140.774 46.6761 141.024 46.6761 141.419C46.6761 141.739 46.6281 142.011 46.5321 142.235C46.4361 142.448 46.2655 142.603 46.0201 142.699C45.8708 142.752 45.6681 142.795 45.4121 142.827C45.1561 142.87 44.9481 142.891 44.7881 142.891ZM56.2908 142.891C55.4268 142.891 54.6748 142.758 54.0348 142.491C53.3948 142.214 52.8988 141.835 52.5468 141.355C52.2054 140.864 52.0348 140.294 52.0348 139.643C52.0348 138.918 52.2321 138.299 52.6268 137.787C53.0321 137.275 53.5441 136.854 54.1628 136.523C53.8214 136.182 53.5654 135.814 53.3948 135.419C53.2241 135.014 53.1388 134.603 53.1388 134.187C53.1388 133.611 53.2828 133.104 53.5707 132.667C53.8694 132.219 54.2801 131.872 54.8028 131.627C55.3361 131.382 55.9601 131.259 56.6748 131.259C57.6241 131.259 58.3761 131.504 58.9308 131.995C59.4961 132.475 59.7788 133.126 59.7788 133.947C59.7788 135.152 59.1494 136.112 57.8908 136.827L59.5228 138.411C59.6508 138.155 59.7574 137.883 59.8428 137.595C59.9281 137.307 60.0028 137.008 60.0668 136.699C60.1414 136.336 60.2748 136.064 60.4668 135.883C60.6694 135.702 60.9521 135.611 61.3148 135.611C61.6988 135.611 61.9868 135.718 62.1788 135.931C62.3814 136.144 62.4508 136.448 62.3868 136.843C62.2908 137.451 62.1414 138.022 61.9388 138.555C61.7468 139.078 61.5014 139.558 61.2028 139.995L62.2908 141.019C62.5894 141.296 62.7388 141.579 62.7388 141.867C62.7494 142.144 62.6428 142.379 62.4188 142.571C62.1948 142.763 61.8961 142.859 61.5228 142.859C61.1814 142.859 60.9041 142.795 60.6908 142.667C60.4881 142.528 60.2588 142.342 60.0028 142.107L59.6348 141.739C59.1548 142.102 58.6268 142.384 58.0508 142.587C57.4854 142.79 56.8988 142.891 56.2908 142.891ZM56.6748 133.115C56.3761 133.115 56.1414 133.206 55.9708 133.387C55.8001 133.568 55.7148 133.808 55.7148 134.107C55.7148 134.331 55.7681 134.544 55.8748 134.747C55.9921 134.95 56.1788 135.184 56.4348 135.451C56.8508 135.238 57.1441 135.024 57.3148 134.811C57.4961 134.587 57.5868 134.326 57.5868 134.027C57.5868 133.718 57.5014 133.488 57.3308 133.339C57.1708 133.19 56.9521 133.115 56.6748 133.115ZM56.4828 140.747C56.7814 140.747 57.0534 140.704 57.2988 140.619C57.5548 140.534 57.8001 140.406 58.0348 140.235L55.6508 137.947C55.1174 138.32 54.8508 138.816 54.8508 139.435C54.8508 139.84 54.9948 140.16 55.2828 140.395C55.5708 140.63 55.9708 140.747 56.4828 140.747ZM74.8309 142.891C73.5402 142.891 72.4415 142.651 71.5349 142.171C70.6389 141.691 69.9562 141.019 69.4869 140.155C69.0175 139.291 68.7829 138.283 68.7829 137.131C68.7829 135.936 69.0282 134.902 69.5189 134.027C70.0202 133.142 70.7349 132.459 71.6629 131.979C72.5909 131.499 73.7109 131.259 75.0229 131.259C75.5562 131.259 76.1002 131.312 76.6549 131.419C77.2095 131.515 77.7535 131.702 78.2869 131.979C78.5642 132.107 78.7509 132.288 78.8469 132.523C78.9535 132.747 78.9855 132.987 78.9429 133.243C78.9109 133.499 78.8202 133.728 78.6709 133.931C78.5215 134.123 78.3242 134.256 78.0789 134.331C77.8442 134.406 77.5722 134.374 77.2629 134.235C76.6015 133.926 75.8602 133.771 75.0389 133.771C73.9615 133.771 73.1562 134.059 72.6229 134.635C72.1002 135.211 71.8389 136.043 71.8389 137.131C71.8389 138.219 72.1055 139.04 72.6389 139.595C73.1722 140.15 73.9615 140.427 75.0069 140.427C75.4975 140.427 76.0469 140.352 76.6549 140.203V138.427H75.5349C74.7775 138.427 74.3989 138.08 74.3989 137.387C74.3989 136.704 74.7775 136.363 75.5349 136.363H77.9029C78.6709 136.363 79.0549 136.747 79.0549 137.515V141.051C79.0549 141.371 78.9855 141.643 78.8469 141.867C78.7189 142.091 78.5109 142.251 78.2229 142.347C77.7109 142.518 77.1615 142.651 76.5749 142.747C75.9989 142.843 75.4175 142.891 74.8309 142.891ZM82.288 142.859C81.3173 142.859 80.832 142.379 80.832 141.419V136.123C80.832 135.174 81.296 134.699 82.224 134.699C82.6613 134.699 82.9973 134.822 83.232 135.067C83.4773 135.312 83.6 135.664 83.6 136.123V136.171C83.7813 135.712 84.0747 135.35 84.48 135.083C84.8853 134.816 85.3653 134.678 85.92 134.667C86.2293 134.656 86.4587 134.736 86.608 134.907C86.768 135.067 86.8533 135.371 86.864 135.819C86.864 136.203 86.784 136.507 86.624 136.731C86.464 136.955 86.16 137.088 85.712 137.131L85.344 137.163C84.7787 137.216 84.368 137.376 84.112 137.643C83.856 137.899 83.728 138.283 83.728 138.795V141.419C83.728 142.379 83.248 142.859 82.288 142.859ZM91.9169 142.891C90.9569 142.891 90.1249 142.726 89.4209 142.395C88.7275 142.054 88.1942 141.574 87.8209 140.955C87.4475 140.336 87.2609 139.606 87.2609 138.763C87.2609 137.963 87.4369 137.254 87.7889 136.635C88.1515 136.016 88.6422 135.536 89.2609 135.195C89.8902 134.843 90.6049 134.667 91.4049 134.667C92.1942 134.667 92.8769 134.832 93.4529 135.163C94.0395 135.494 94.4875 135.968 94.7969 136.587C95.1169 137.195 95.2769 137.91 95.2769 138.731C95.2769 139.147 95.0315 139.355 94.5409 139.355H89.9809C90.0769 139.867 90.2902 140.235 90.6209 140.459C90.9515 140.683 91.4102 140.795 91.9969 140.795C92.2209 140.795 92.4875 140.768 92.7969 140.715C93.1062 140.662 93.3995 140.576 93.6769 140.459C94.0182 140.331 94.3062 140.331 94.5409 140.459C94.7755 140.576 94.9302 140.763 95.0049 141.019C95.0902 141.264 95.0795 141.52 94.9729 141.787C94.8769 142.043 94.6795 142.24 94.3809 142.379C94.0075 142.56 93.6075 142.688 93.1809 142.763C92.7649 142.848 92.3435 142.891 91.9169 142.891ZM91.5329 136.507C91.1062 136.507 90.7542 136.635 90.4769 136.891C90.2102 137.147 90.0395 137.52 89.9649 138.011H92.9409C92.9089 137.51 92.7702 137.136 92.5249 136.891C92.2902 136.635 91.9595 136.507 91.5329 136.507ZM100.792 142.891C99.8319 142.891 98.9999 142.726 98.2959 142.395C97.6025 142.054 97.0692 141.574 96.6959 140.955C96.3225 140.336 96.1359 139.606 96.1359 138.763C96.1359 137.963 96.3119 137.254 96.6639 136.635C97.0265 136.016 97.5172 135.536 98.1359 135.195C98.7652 134.843 99.4799 134.667 100.28 134.667C101.069 134.667 101.752 134.832 102.328 135.163C102.915 135.494 103.363 135.968 103.672 136.587C103.992 137.195 104.152 137.91 104.152 138.731C104.152 139.147 103.907 139.355 103.416 139.355H98.8559C98.9519 139.867 99.1652 140.235 99.4959 140.459C99.8265 140.683 100.285 140.795 100.872 140.795C101.096 140.795 101.363 140.768 101.672 140.715C101.981 140.662 102.275 140.576 102.552 140.459C102.893 140.331 103.181 140.331 103.416 140.459C103.651 140.576 103.805 140.763 103.88 141.019C103.965 141.264 103.955 141.52 103.848 141.787C103.752 142.043 103.555 142.24 103.256 142.379C102.883 142.56 102.483 142.688 102.056 142.763C101.64 142.848 101.219 142.891 100.792 142.891ZM100.408 136.507C99.9812 136.507 99.6292 136.635 99.3519 136.891C99.0852 137.147 98.9145 137.52 98.8399 138.011H101.816C101.784 137.51 101.645 137.136 101.4 136.891C101.165 136.635 100.835 136.507 100.408 136.507ZM109.444 142.891C108.25 142.891 107.364 142.614 106.788 142.059C106.212 141.504 105.924 140.667 105.924 139.547V136.939H105.38C104.666 136.939 104.308 136.587 104.308 135.883C104.308 135.19 104.666 134.843 105.38 134.843H105.924V133.851C105.924 133.382 106.047 133.024 106.292 132.779C106.538 132.534 106.89 132.411 107.348 132.411C108.298 132.411 108.772 132.891 108.772 133.851V134.843H110.084C110.81 134.843 111.172 135.19 111.172 135.883C111.172 136.587 110.81 136.939 110.084 136.939H108.772V139.451C108.772 140.219 109.162 140.603 109.94 140.603C110.09 140.603 110.234 140.587 110.372 140.555C110.511 140.523 110.639 140.507 110.756 140.507C110.927 140.496 111.066 140.55 111.172 140.667C111.279 140.774 111.332 141.024 111.332 141.419C111.332 141.739 111.284 142.011 111.188 142.235C111.092 142.448 110.922 142.603 110.676 142.699C110.527 142.752 110.324 142.795 110.068 142.827C109.812 142.87 109.604 142.891 109.444 142.891Z" fill="white"/>
</g>
<defs>
<clipPath id="clip0_6_2813">
<path d="M0 24.7148C0 13.4011 0 7.74428 3.51472 4.22956C7.02944 0.714844 12.6863 0.714844 24 0.714844H96C107.314 0.714844 112.971 0.714844 116.485 4.22956C120 7.74428 120 13.4011 120 24.7148V146.715C120 158.029 120 163.685 116.485 167.2C112.971 170.715 107.314 170.715 96 170.715H24C12.6863 170.715 7.02944 170.715 3.51472 167.2C0 163.685 0 158.029 0 146.715V24.7148Z" fill="white"/>
</clipPath>
</defs>
</svg>
