<svg width="120" height="171" viewBox="0 0 120 171" fill="none" xmlns="http://www.w3.org/2000/svg">
<g clip-path="url(#clip0_6_2808)">
<path d="M0 24.7148C0 13.4011 0 7.74428 3.51472 4.22956C7.02944 0.714844 12.6863 0.714844 24 0.714844H96C107.314 0.714844 112.971 0.714844 116.485 4.22956C120 7.74428 120 13.4011 120 24.7148V146.715C120 158.029 120 163.685 116.485 167.2C112.971 170.715 107.314 170.715 96 170.715H24C12.6863 170.715 7.02944 170.715 3.51472 167.2C0 163.685 0 158.029 0 146.715V24.7148Z" fill="#E6F7F6"/>
<g clip-path="url(#clip1_6_2808)">
<path d="M75.6875 52.5898C76.3125 52.5898 76.875 52.6523 77.4375 52.7773C79.75 53.2773 82.625 55.5273 84.125 57.9648C84.875 59.2148 86.625 60.3398 87.5625 60.4648L90.875 60.9023C92.3125 61.0898 93.25 62.4023 93.0625 63.7773C92.875 65.0898 91.8125 66.0273 90.5 66.0273H90.1875L86.875 65.5898C84.875 65.3398 82.5 63.9648 80.875 62.2148L78.9375 73.9023C81.1875 76.5273 83.8125 80.6523 85.0625 83.6523L87.6875 90.0273C88.25 91.3398 87.625 92.8398 86.3125 93.4023C86 93.5273 85.6875 93.5898 85.3125 93.5898C84.3125 93.5898 83.375 92.9648 82.9375 92.0273L80.3125 85.6523C79.25 83.0273 76.6875 79.0273 74.75 76.9648L74.25 76.4023L74.1875 76.7148C73.875 80.2773 72.25 85.2148 70.4375 87.9648L67.5625 92.3398C67.0625 93.0898 66.25 93.5273 65.4375 93.5273C64.9375 93.5273 64.5 93.4023 64.0625 93.0898C62.875 92.3398 62.5625 90.7148 63.3125 89.5273L66.1875 85.1523C67.5 83.0898 68.875 78.9648 69.125 76.2773L69.1875 75.7773C69.4375 73.0273 70.0625 68.9023 70.75 65.8398C70.8125 65.2773 70.875 64.7148 71 64.1523L71.6875 61.1523C71.125 61.9023 70.5 62.7773 69.875 63.5898L67 67.6523C66.5 68.3398 65.6875 68.7773 64.875 68.7773C64.375 68.7773 63.875 68.6523 63.375 68.3398C62.1875 67.5273 61.9375 65.9023 62.75 64.7773L65.625 60.7148C67.0625 58.6523 69.25 55.7773 70.375 54.5898C71.6875 53.2148 73.75 52.5898 75.6875 52.5898ZM75.6875 50.0898C72.8125 50.0898 70.25 51.0898 68.5625 52.7773C67.3125 54.0898 65.0625 57.0273 63.5625 59.2148L60.6875 63.2773C59.0625 65.5898 59.625 68.7148 61.9375 70.3398C62.8125 70.9648 63.8125 71.2773 64.8125 71.2773C65.6875 71.2773 66.5 71.0898 67.1875 70.6523C66.9375 72.4023 66.6875 74.1523 66.5625 75.5273L66.5 76.0273C66.3125 78.2773 65.0625 82.0898 63.9375 83.7773L61.0625 88.1523C60.3125 89.2773 60.0625 90.6523 60.375 91.9648C60.625 93.2773 61.4375 94.4023 62.5625 95.1523C63.375 95.7148 64.375 95.9648 65.3125 95.9648C67.0625 95.9648 68.625 95.0898 69.5625 93.6523L72.4375 89.2773C73.625 87.4023 74.75 84.7773 75.5625 82.1523C76.5625 83.6523 77.4375 85.2773 77.9375 86.4648L80.5625 92.8398C81.375 94.7148 83.1875 95.9648 85.25 95.9648C85.9375 95.9648 86.5625 95.8398 87.1875 95.5898C88.4375 95.0898 89.4375 94.0898 89.9375 92.8398C90.4375 91.5898 90.4375 90.2148 89.9375 88.9648L87.3125 82.5898C86.125 79.7148 83.8125 75.9023 81.5625 73.0898L82.625 66.6523C83.9375 67.3398 85.25 67.8398 86.5 68.0273L89.8125 68.4648C90 68.4648 90.25 68.5273 90.5 68.5273C93.0625 68.5273 95.1875 66.6523 95.5 64.0898C95.6875 62.7773 95.3125 61.4023 94.5 60.3398C93.6875 59.2773 92.5 58.5898 91.125 58.4023L87.875 57.9648C87.5 57.8398 86.5625 57.2148 86.1875 56.5898C84.375 53.5898 80.875 50.9023 77.9375 50.2773C77.25 50.1523 76.5 50.0898 75.6875 50.0898Z" fill="#00B0A6"/>
<path d="M48.625 90.3398C48.1875 90.5273 47.75 90.8398 47.5 91.2773C46.875 92.4023 47.25 93.7773 48.375 94.4023C49.5 95.0273 50.875 94.6523 51.5 93.5273C51.8125 93.0273 51.875 92.4648 51.75 91.9648M56.9375 73.9023L60.8125 67.0898L56.9375 73.9023ZM64.1875 70.2148L60.75 76.1523L64.1875 70.2148Z" stroke="#00B0A6" stroke-width="3" stroke-miterlimit="10"/>
<path d="M41.125 38.7148C40.375 38.7148 39.8125 38.1523 39.8125 37.4023V26.8398C39.8125 26.0898 40.375 25.5273 41.125 25.5273H44.3125C46.8125 25.5273 48.8125 27.5273 48.8125 30.0273C48.8125 32.5273 46.8125 34.5273 44.3125 34.5273H42.4375V37.4023C42.4375 38.1523 41.875 38.7148 41.125 38.7148ZM42.4375 31.9023H44.3125C45.3125 31.9023 46.1875 31.0898 46.1875 30.0273C46.1875 29.0273 45.375 28.1523 44.3125 28.1523H42.4375V31.9023Z" fill="#00B0A6"/>
<path d="M25.625 20.4648V94.5898V20.4648ZM31.9375 19.0898H56.4375V44.7773H31.9375V19.0898ZM25.9375 26.0273H31.5625H25.9375ZM25.9375 39.8398H31.5625H25.9375ZM88.6875 32.9648L88.1875 31.5273C88.1875 31.5273 84.4375 32.9023 81.625 33.9648L79.1875 34.8398L81.625 33.9648C79.5625 29.7148 77.4375 28.7773 77 28.4648C76.5625 28.0898 76.125 27.9023 75.6875 28.2773C75.4375 28.5273 75.25 28.7148 75.125 28.7773C75.0625 28.8398 75 28.8398 74.9375 28.9023H74C73.5 28.9023 73.25 29.3398 73.125 29.9023C73.0625 30.4023 72.0625 32.5273 73.25 37.0898C70.5 38.0898 66.6875 39.5273 66.6875 39.5273L67.1875 40.9648C67.6875 42.3398 69.1875 43.0273 70.5625 42.5273L87.125 36.4023C88.5 35.8398 89.1875 34.2773 88.6875 32.9648V32.9648Z" stroke="#00B0A6" stroke-width="3" stroke-miterlimit="10" stroke-linejoin="round"/>
<path d="M54.8125 90.4023C54.0625 91.7148 52.3125 92.2148 51 91.4023L45.8125 88.4023C44.5 87.6523 44 85.9023 44.8125 84.5898L51.0625 73.7773C51.8125 72.4648 53.5625 71.9648 54.875 72.7773L60.0625 75.7773C61.375 76.5273 61.875 78.2773 61.0625 79.5898L54.8125 90.4023Z" stroke="#00B0A6" stroke-width="3" stroke-miterlimit="10"/>
<path d="M83.8125 42.3398C83.8125 44.7773 81.8125 46.7773 79.375 46.7773C76.9375 46.7773 74.9375 44.8398 74.9375 42.3398C74.9375 41.7773 75.0625 41.2148 75.25 40.7148L72.4375 41.7148C72.4375 41.9023 72.375 42.1523 72.375 42.3398C72.375 46.1523 75.5 49.2773 79.3125 49.2773C83.125 49.2773 86.25 46.1523 86.25 42.3398C86.25 40.4023 85.4375 38.6523 84.125 37.3398L81.3125 38.3398C82.875 39.1523 83.8125 40.6523 83.8125 42.3398Z" fill="#00B0A6"/>
</g>
<rect width="120" height="62" transform="translate(0 108.715)" fill="#00B0A6"/>
<path d="M11.496 142.859C11.0267 142.859 10.664 142.731 10.408 142.475C10.152 142.219 10.024 141.851 10.024 141.371V132.923C10.024 132.443 10.152 132.075 10.408 131.819C10.664 131.563 11.032 131.435 11.512 131.435H15.448C16.728 131.435 17.7147 131.766 18.408 132.427C19.112 133.078 19.464 133.979 19.464 135.131C19.464 136.283 19.112 137.19 18.408 137.851C17.7147 138.502 16.728 138.827 15.448 138.827H12.968V141.371C12.968 141.851 12.84 142.219 12.584 142.475C12.3387 142.731 11.976 142.859 11.496 142.859ZM12.968 136.571H14.936C16.088 136.571 16.664 136.091 16.664 135.131C16.664 134.171 16.088 133.691 14.936 133.691H12.968V136.571ZM23.0368 142.891C22.4288 142.891 21.8901 142.779 21.4208 142.555C20.9621 142.331 20.5994 142.027 20.3328 141.643C20.0768 141.248 19.9488 140.8 19.9488 140.299C19.9488 139.734 20.0981 139.286 20.3968 138.955C20.6954 138.614 21.1754 138.374 21.8368 138.235C22.4981 138.086 23.3781 138.011 24.4768 138.011H25.0848V137.787C25.0848 137.403 24.9834 137.131 24.7808 136.971C24.5888 136.811 24.2528 136.731 23.7728 136.731C23.5061 136.731 23.2128 136.763 22.8928 136.827C22.5834 136.88 22.2314 136.982 21.8368 137.131C21.4848 137.259 21.1914 137.254 20.9568 137.115C20.7221 136.976 20.5674 136.779 20.4928 136.523C20.4288 136.256 20.4554 135.995 20.5728 135.739C20.7008 135.472 20.9408 135.275 21.2928 135.147C21.8048 134.966 22.2741 134.843 22.7008 134.779C23.1381 134.704 23.5381 134.667 23.9008 134.667C25.2128 134.667 26.1834 134.95 26.8128 135.515C27.4528 136.08 27.7728 136.971 27.7728 138.187V141.419C27.7728 142.379 27.3354 142.859 26.4608 142.859C25.6288 142.859 25.1861 142.432 25.1328 141.579C24.9834 141.984 24.7274 142.304 24.3648 142.539C24.0021 142.774 23.5594 142.891 23.0368 142.891ZM23.6768 141.035C24.0714 141.035 24.4021 140.907 24.6688 140.651C24.9461 140.395 25.0848 140.059 25.0848 139.643V139.355H24.4768C23.8474 139.355 23.3834 139.424 23.0848 139.563C22.7968 139.691 22.6528 139.899 22.6528 140.187C22.6528 140.432 22.7381 140.635 22.9088 140.795C23.0901 140.955 23.3461 141.035 23.6768 141.035ZM30.8505 142.859C29.8798 142.859 29.3945 142.379 29.3945 141.419V136.123C29.3945 135.174 29.8585 134.699 30.7865 134.699C31.2238 134.699 31.5598 134.822 31.7945 135.067C32.0398 135.312 32.1625 135.664 32.1625 136.123V136.171C32.3438 135.712 32.6372 135.35 33.0425 135.083C33.4478 134.816 33.9278 134.678 34.4825 134.667C34.7918 134.656 35.0212 134.736 35.1705 134.907C35.3305 135.067 35.4158 135.371 35.4265 135.819C35.4265 136.203 35.3465 136.507 35.1865 136.731C35.0265 136.955 34.7225 137.088 34.2745 137.131L33.9065 137.163C33.3412 137.216 32.9305 137.376 32.6745 137.643C32.4185 137.899 32.2905 138.283 32.2905 138.795V141.419C32.2905 142.379 31.8105 142.859 30.8505 142.859ZM37.74 142.859C37.2813 142.859 36.9293 142.736 36.684 142.491C36.4493 142.246 36.332 141.888 36.332 141.419V132.731C36.332 131.771 36.8013 131.291 37.74 131.291C38.1987 131.291 38.5507 131.414 38.796 131.659C39.052 131.904 39.18 132.262 39.18 132.731V138.011H39.212L41.164 135.643C41.4307 135.312 41.676 135.072 41.9 134.923C42.1347 134.774 42.4493 134.699 42.844 134.699C43.2387 134.699 43.5427 134.795 43.756 134.987C43.9693 135.179 44.076 135.419 44.076 135.707C44.0867 135.995 43.9747 136.283 43.74 136.571L42.044 138.587L43.996 141.051C44.22 141.36 44.3107 141.654 44.268 141.931C44.236 142.198 44.1027 142.422 43.868 142.603C43.644 142.774 43.356 142.859 43.004 142.859C42.5667 142.859 42.22 142.784 41.964 142.635C41.7187 142.475 41.468 142.23 41.212 141.899L39.212 139.435H39.18V141.419C39.18 142.379 38.7 142.859 37.74 142.859ZM54.4314 142.891C53.5674 142.891 52.8154 142.758 52.1754 142.491C51.5354 142.214 51.0394 141.835 50.6874 141.355C50.346 140.864 50.1754 140.294 50.1754 139.643C50.1754 138.918 50.3727 138.299 50.7674 137.787C51.1727 137.275 51.6847 136.854 52.3034 136.523C51.962 136.182 51.706 135.814 51.5354 135.419C51.3647 135.014 51.2794 134.603 51.2794 134.187C51.2794 133.611 51.4234 133.104 51.7114 132.667C52.01 132.219 52.4207 131.872 52.9434 131.627C53.4767 131.382 54.1007 131.259 54.8154 131.259C55.7647 131.259 56.5167 131.504 57.0714 131.995C57.6367 132.475 57.9194 133.126 57.9194 133.947C57.9194 135.152 57.29 136.112 56.0314 136.827L57.6634 138.411C57.7914 138.155 57.898 137.883 57.9834 137.595C58.0687 137.307 58.1434 137.008 58.2074 136.699C58.282 136.336 58.4154 136.064 58.6074 135.883C58.81 135.702 59.0927 135.611 59.4554 135.611C59.8394 135.611 60.1274 135.718 60.3194 135.931C60.522 136.144 60.5914 136.448 60.5274 136.843C60.4314 137.451 60.282 138.022 60.0794 138.555C59.8874 139.078 59.642 139.558 59.3434 139.995L60.4314 141.019C60.73 141.296 60.8794 141.579 60.8794 141.867C60.89 142.144 60.7834 142.379 60.5594 142.571C60.3354 142.763 60.0367 142.859 59.6634 142.859C59.322 142.859 59.0447 142.795 58.8314 142.667C58.6287 142.528 58.3994 142.342 58.1434 142.107L57.7754 141.739C57.2954 142.102 56.7674 142.384 56.1914 142.587C55.626 142.79 55.0394 142.891 54.4314 142.891ZM54.8154 133.115C54.5167 133.115 54.282 133.206 54.1114 133.387C53.9407 133.568 53.8554 133.808 53.8554 134.107C53.8554 134.331 53.9087 134.544 54.0154 134.747C54.1327 134.95 54.3194 135.184 54.5754 135.451C54.9914 135.238 55.2847 135.024 55.4554 134.811C55.6367 134.587 55.7274 134.326 55.7274 134.027C55.7274 133.718 55.642 133.488 55.4714 133.339C55.3114 133.19 55.0927 133.115 54.8154 133.115ZM54.6234 140.747C54.922 140.747 55.194 140.704 55.4394 140.619C55.6954 140.534 55.9407 140.406 56.1754 140.235L53.7914 137.947C53.258 138.32 52.9914 138.816 52.9914 139.435C52.9914 139.84 53.1354 140.16 53.4234 140.395C53.7114 140.63 54.1114 140.747 54.6234 140.747ZM71.4035 142.891C70.7528 142.891 70.0808 142.827 69.3875 142.699C68.7048 142.56 68.1182 142.368 67.6275 142.123C67.3395 141.984 67.1368 141.798 67.0195 141.563C66.9022 141.328 66.8595 141.088 66.8915 140.843C66.9235 140.587 67.0142 140.363 67.1635 140.171C67.3128 139.968 67.5102 139.835 67.7555 139.771C68.0008 139.696 68.2782 139.728 68.5875 139.867C68.9928 140.07 69.4515 140.224 69.9635 140.331C70.4755 140.427 70.9555 140.475 71.4035 140.475C72.1075 140.475 72.5982 140.384 72.8755 140.203C73.1635 140.011 73.3075 139.776 73.3075 139.499C73.3075 139.254 73.2062 139.056 73.0035 138.907C72.8115 138.758 72.4648 138.63 71.9635 138.523L70.0915 138.123C68.0648 137.686 67.0515 136.624 67.0515 134.939C67.0515 134.203 67.2488 133.558 67.6435 133.003C68.0488 132.448 68.6088 132.022 69.3235 131.723C70.0382 131.414 70.8702 131.259 71.8195 131.259C72.3742 131.259 72.9342 131.323 73.4995 131.451C74.0755 131.568 74.5715 131.75 74.9875 131.995C75.3075 132.166 75.5102 132.4 75.5955 132.699C75.6808 132.987 75.6702 133.27 75.5635 133.547C75.4568 133.824 75.2648 134.027 74.9875 134.155C74.7208 134.283 74.3795 134.262 73.9635 134.091C73.6435 133.952 73.2915 133.851 72.9075 133.787C72.5235 133.712 72.1502 133.675 71.7875 133.675C71.1902 133.675 70.7315 133.782 70.4115 133.995C70.0915 134.198 69.9315 134.464 69.9315 134.795C69.9315 135.03 70.0275 135.222 70.2195 135.371C70.4115 135.52 70.7528 135.648 71.2435 135.755L73.0995 136.155C75.1582 136.592 76.1875 137.627 76.1875 139.259C76.1875 139.995 75.9902 140.635 75.5955 141.179C75.2008 141.723 74.6462 142.144 73.9315 142.443C73.2168 142.742 72.3742 142.891 71.4035 142.891ZM81.4444 142.891C80.2497 142.891 79.3644 142.614 78.7884 142.059C78.2124 141.504 77.9244 140.667 77.9244 139.547V136.939H77.3804C76.6657 136.939 76.3084 136.587 76.3084 135.883C76.3084 135.19 76.6657 134.843 77.3804 134.843H77.9244V133.851C77.9244 133.382 78.047 133.024 78.2924 132.779C78.5377 132.534 78.8897 132.411 79.3484 132.411C80.2977 132.411 80.7724 132.891 80.7724 133.851V134.843H82.0844C82.8097 134.843 83.1724 135.19 83.1724 135.883C83.1724 136.587 82.8097 136.939 82.0844 136.939H80.7724V139.451C80.7724 140.219 81.1617 140.603 81.9404 140.603C82.0897 140.603 82.2337 140.587 82.3724 140.555C82.511 140.523 82.639 140.507 82.7564 140.507C82.927 140.496 83.0657 140.55 83.1724 140.667C83.279 140.774 83.3324 141.024 83.3324 141.419C83.3324 141.739 83.2844 142.011 83.1884 142.235C83.0924 142.448 82.9217 142.603 82.6764 142.699C82.527 142.752 82.3244 142.795 82.0684 142.827C81.8124 142.87 81.6044 142.891 81.4444 142.891ZM85.5849 142.859C84.6142 142.859 84.1289 142.379 84.1289 141.419V136.123C84.1289 135.174 84.5929 134.699 85.5209 134.699C85.9582 134.699 86.2942 134.822 86.5289 135.067C86.7742 135.312 86.8969 135.664 86.8969 136.123V136.171C87.0782 135.712 87.3715 135.35 87.7769 135.083C88.1822 134.816 88.6622 134.678 89.2169 134.667C89.5262 134.656 89.7555 134.736 89.9049 134.907C90.0649 135.067 90.1502 135.371 90.1609 135.819C90.1609 136.203 90.0809 136.507 89.9209 136.731C89.7609 136.955 89.4569 137.088 89.0089 137.131L88.6409 137.163C88.0755 137.216 87.6649 137.376 87.4089 137.643C87.1529 137.899 87.0249 138.283 87.0249 138.795V141.419C87.0249 142.379 86.5449 142.859 85.5849 142.859ZM94.9098 142.891C94.0351 142.891 93.2724 142.726 92.6218 142.395C91.9711 142.064 91.4644 141.59 91.1018 140.971C90.7391 140.352 90.5578 139.622 90.5578 138.779C90.5578 137.926 90.7391 137.195 91.1018 136.587C91.4644 135.968 91.9711 135.494 92.6218 135.163C93.2724 134.832 94.0351 134.667 94.9098 134.667C95.7844 134.667 96.5471 134.832 97.1978 135.163C97.8484 135.494 98.3498 135.968 98.7018 136.587C99.0644 137.195 99.2458 137.926 99.2458 138.779C99.2458 139.622 99.0644 140.352 98.7018 140.971C98.3498 141.59 97.8484 142.064 97.1978 142.395C96.5471 142.726 95.7844 142.891 94.9098 142.891ZM94.9098 140.795C95.3364 140.795 95.6884 140.635 95.9658 140.315C96.2431 139.995 96.3818 139.483 96.3818 138.779C96.3818 138.064 96.2431 137.552 95.9658 137.243C95.6884 136.923 95.3364 136.763 94.9098 136.763C94.4724 136.763 94.1151 136.923 93.8378 137.243C93.5604 137.552 93.4218 138.064 93.4218 138.779C93.4218 139.483 93.5604 139.995 93.8378 140.315C94.1151 140.635 94.4724 140.795 94.9098 140.795ZM103.543 142.891C102.508 142.891 101.751 142.619 101.271 142.075C100.791 141.52 100.551 140.688 100.551 139.579V132.731C100.551 131.771 101.02 131.291 101.959 131.291C102.417 131.291 102.769 131.414 103.015 131.659C103.271 131.904 103.399 132.262 103.399 132.731V139.483C103.399 139.878 103.473 140.166 103.623 140.347C103.783 140.528 103.985 140.619 104.231 140.619C104.305 140.619 104.38 140.614 104.455 140.603C104.54 140.582 104.631 140.566 104.727 140.555C104.919 140.555 105.057 140.624 105.143 140.763C105.228 140.902 105.271 141.184 105.271 141.611C105.271 141.984 105.196 142.267 105.047 142.459C104.897 142.64 104.668 142.758 104.359 142.811C104.273 142.832 104.151 142.848 103.991 142.859C103.831 142.88 103.681 142.891 103.543 142.891ZM109.105 142.891C108.071 142.891 107.313 142.619 106.833 142.075C106.353 141.52 106.113 140.688 106.113 139.579V132.731C106.113 131.771 106.583 131.291 107.521 131.291C107.98 131.291 108.332 131.414 108.577 131.659C108.833 131.904 108.961 132.262 108.961 132.731V139.483C108.961 139.878 109.036 140.166 109.185 140.347C109.345 140.528 109.548 140.619 109.793 140.619C109.868 140.619 109.943 140.614 110.017 140.603C110.103 140.582 110.193 140.566 110.289 140.555C110.481 140.555 110.62 140.624 110.705 140.763C110.791 140.902 110.833 141.184 110.833 141.611C110.833 141.984 110.759 142.267 110.609 142.459C110.46 142.64 110.231 142.758 109.921 142.811C109.836 142.832 109.713 142.848 109.553 142.859C109.393 142.88 109.244 142.891 109.105 142.891Z" fill="white"/>
</g>
<defs>
<clipPath id="clip0_6_2808">
<path d="M0 24.7148C0 13.4011 0 7.74428 3.51472 4.22956C7.02944 0.714844 12.6863 0.714844 24 0.714844H96C107.314 0.714844 112.971 0.714844 116.485 4.22956C120 7.74428 120 13.4011 120 24.7148V146.715C120 158.029 120 163.685 116.485 167.2C112.971 170.715 107.314 170.715 96 170.715H24C12.6863 170.715 7.02944 170.715 3.51472 167.2C0 163.685 0 158.029 0 146.715V24.7148Z" fill="white"/>
</clipPath>
<clipPath id="clip1_6_2808">
<rect width="80" height="80" fill="white" transform="translate(20 16.7148)"/>
</clipPath>
</defs>
</svg>
